<svg xmlns="http://www.w3.org/2000/svg" width="100" height="100" fill="none"><path fill="url(#solana-favicon)" d="M86.619 69.036 74.403 82.101a2.837 2.837 0 0 1-2.075.899h-57.91a1.421 1.421 0 0 1-1.3-.85 1.411 1.411 0 0 1 .263-1.53l12.225-13.064a2.837 2.837 0 0 1 2.07-.899h57.906a1.423 1.423 0 0 1 1.3.85 1.412 1.412 0 0 1-.263 1.53ZM74.403 42.727a2.837 2.837 0 0 0-2.075-.898h-57.91a1.421 1.421 0 0 0-1.3.85 1.412 1.412 0 0 0 .263 1.529l12.225 13.065a2.84 2.84 0 0 0 2.07.898h57.906a1.422 1.422 0 0 0 1.3-.85 1.412 1.412 0 0 0-.263-1.529L74.403 42.727Zm-59.985-9.384h57.91a2.844 2.844 0 0 0 2.075-.899l12.216-13.065A1.414 1.414 0 0 0 85.582 17H27.676a2.845 2.845 0 0 0-2.07.899L13.384 30.964a1.412 1.412 0 0 0 1.034 2.379Z"/><defs><linearGradient id="solana-favicon" x1="19.247" x2="79.786" y1="84.573" y2="16.138" gradientUnits="userSpaceOnUse"><stop offset=".08" stop-color="#9945FF"/><stop offset=".3" stop-color="#8752F3"/><stop offset=".5" stop-color="#5497D5"/><stop offset=".6" stop-color="#43B4CA"/><stop offset=".72" stop-color="#28E0B9"/><stop offset=".97" stop-color="#19FB9B"/></linearGradient></defs></svg>